<?xml version="1.0" encoding="UTF-8" standalone="no"?><!DOCTYPE svg PUBLIC "-//W3C//DTD SVG 1.1//EN" "http://www.w3.org/Graphics/SVG/1.1/DTD/svg11.dtd"><svg width="100%" height="100%" viewBox="0 0 48 48" version="1.1" xmlns="http://www.w3.org/2000/svg" xmlns:xlink="http://www.w3.org/1999/xlink" xml:space="preserve" xmlns:serif="http://www.serif.com/" style="fill-rule:evenodd;clip-rule:evenodd;stroke-linejoin:round;stroke-miterlimit:2;"><g><rect x="0" y="0" width="48" height="48" style="fill:none;"/></g><g><path d="M39.6,14.4l-15.6,-0l-4.8,-4.8l-10.8,-0c-1.992,-0 -3.6,1.608 -3.6,3.6l0,21.6c0,1.992 1.608,3.6 3.6,3.6l31.2,-0c1.992,-0 3.6,-1.608 3.6,-3.6l0,-16.8c0,-1.992 -1.608,-3.6 -3.6,-3.6Zm-3.6,7.2l-3.6,-0l0,3.6l3.6,-0l0,3.6l-3.6,-0l0,3.6l-3.6,-0l0,-3.6l3.6,-0l0,-3.6l-3.6,-0l0,-3.6l3.6,-0l0,-3.6l3.6,0l0,3.6Z" style="fill:#f7ab00;fill-rule:nonzero;"/></g></svg>